<svg xmlns="http://www.w3.org/2000/svg" width="222.46" height="58.66" viewBox="0 0 222.46 58.66">
  <g id="Logo" transform="translate(883.383 550.73)">
    <path id="Контур_94" data-name="Контур 94" d="M-669.383-476.226l3.531-42.07s-.272-6.543,9.135-7.027,10.671,7.027,10.671,7.027l1.842,6.909-6.909,14.279s-.35-1.862-.849-3.474a24.961,24.961,0,0,0-1.147-2.975l-2,27.33Z" transform="translate(-214 -16.913)" fill="#008437"/>
    <path id="Контур_95" data-name="Контур 95" d="M-606.43-505.743a64.065,64.065,0,0,1,4.193-8.945c1.952-3.434,4.678-7,6.29-9.994,3.739-6.954,4.263-8.875,4.263-8.875a21.553,21.553,0,0,1-1.677,8.107c-1.765,4.053-2.324,3.6-5.591,8.526S-606.43-505.743-606.43-505.743Z" transform="translate(-255.943 -11.441)" fill="#f7fa00"/>
    <path id="Контур_96" data-name="Контур 96" d="M-604.51-489.434s-2.907-3.634-2.663-12.307,2.116-13.1,9.2-19.764,8.691-8.268,9.308-10.042-2.222-10.218-2.222-10.218,1.668,2.661,2.667,4.683a16.363,16.363,0,0,1,1.33,3.754,19.064,19.064,0,0,0,2.487-3.944c1.34-2.677,2.545-6.012,2.545-6.012a25.606,25.606,0,0,1-1.622,6.712,23.325,23.325,0,0,1-3.409,5.62c-.706,1.1-.654,9.752-9.417,18.944S-604.51-489.434-604.51-489.434Z" transform="translate(-255.439 -4.96)" fill="#f7fa00"/>
    <path id="Контур_97" data-name="Контур 97" d="M-589.656-551.73s7.387,13.453-6.059,27.9c-5.661,6.082-11.447,10.63-15.081,17.9s-1.712,11.021-1.712,11.021a26.531,26.531,0,0,1,3.166-9.2c1.873-3.519,5.321-7.75,9.176-11.9,9.449-10.175,11.931-13.876,13.083-21.259S-589.656-551.73-589.656-551.73Z" transform="translate(-245.882 1)" fill="#f7fa00"/>
    <path id="Контур_98" data-name="Контур 98" d="M-540.349-494.086a71.792,71.792,0,0,1-5.689,9.588,53.8,53.8,0,0,1-6.848,7.583l1.09,21.623h14.536Z" transform="translate(-292.284 -37.739)" fill="#008437"/>
    <path id="Контур_99" data-name="Контур 99" d="M-485.378-468.35l6.614-4.016s-3.037-1.572-5.4-.568a6.792,6.792,0,0,0-3.929,4.838,7.064,7.064,0,0,0,1.034,5.769c1.417,2.155,4.514,2.6,4.514,2.6a10.256,10.256,0,0,0,5.162-.717,15.134,15.134,0,0,0,4.523-3.771l7.559,7.086s-4.824,7.832-16.362,8.74-20.714-9.967-19.261-20.351a19.318,19.318,0,0,1,9.994-14.373,17.087,17.087,0,0,1,14.991-.527A19.015,19.015,0,0,1-465.3-471.657l-17.244,9.331Z" transform="translate(-325.47 -43.734)" fill="#008437"/>
    <path id="Контур_100" data-name="Контур 100" d="M-390.252-479.169a66.136,66.136,0,0,0,0,8.48c.289,4.677,1.193,10.512,4.736,14.569a13.408,13.408,0,0,0,15.7,3.88v-11.693s-2.821,1.152-4.623,0a5.728,5.728,0,0,1-2.582-4.875c-.109-1.989,0-10.361,0-10.361Z" transform="translate(-399.219 -47.678)" fill="#008437"/>
    <rect id="Прямоугольник_1146" data-name="Прямоугольник 1146" width="14" height="34" transform="translate(-767.568 -527.284)" fill="#008437"/>
    <path id="Контур_101" data-name="Контур 101" d="M-275.25-448.216s-.035-21.972,0-23.389,1.206-8.839,9.89-11.237,15.458,3.878,15.458,3.878,6.891-6.213,15.836-3.557,9.512,11.643,9.512,11.643v22.531h-13.355s.007-20.623,0-21.078a2.55,2.55,0,0,0-2.6-1.679A2.357,2.357,0,0,0-243-469.424c-.02.492,0,21.078,0,21.078h-13.446s-.017-7.615,0-13.778c.011-3.861.1-7.123,0-7.3a3.543,3.543,0,0,0-2.726-1.6,3.268,3.268,0,0,0-2.816,1.6c-.108.24,0,2.951,0,6.432.007,6.11,0,14.646,0,14.646Z" transform="translate(-475.918 -44.867)" fill="#008437"/>
    <path id="Контур_102" data-name="Контур 102" d="M-96.5-461.138s-8.986,2.294-7.952-5.356c.582-4.307,4.313-4.809,7.113-3.763,2.022.755,3.279,2.258,3.28,2.941s.039,18.934.039,18.934h13.392v-18.111s-.28-16.741-18.45-16.811-19.5,15.832-19.5,16.811-.769,9.746,6.15,14.708,15.926,3.4,15.926,3.4Z" transform="translate(-580.298 -44.922)" fill="#008437"/>
  </g>
</svg>
